<?xml version="1.0" standalone="no"?>
<!DOCTYPE svg PUBLIC "-//W3C//DTD SVG 20010904//EN"
 "http://www.w3.org/TR/2001/REC-SVG-20010904/DTD/svg10.dtd">
<svg version="1.0" xmlns="http://www.w3.org/2000/svg"
 width="260.000000pt" height="260.000000pt" viewBox="0 0 260.000000 260.000000"
 preserveAspectRatio="xMidYMid meet">
<metadata>
Created by potrace 1.11, written by Peter Selinger 2001-2013
</metadata>
<g transform="translate(0.000000,260.000000) scale(0.100000,-0.100000)"
fill="#000000" stroke="none">
<path d="M1106 2555 c-559 -91 -992 -535 -1067 -1092 -17 -130 -6 -334 25
-458 61 -244 165 -426 340 -600 116 -116 198 -177 322 -240 177 -90 365 -135
569 -135 348 0 656 128 900 374 240 242 359 513 372 846 8 220 -35 428 -128
612 -177 352 -513 610 -891 683 -118 23 -332 28 -442 10z"/>
</g>
</svg>
