<?xml version="1.0" encoding="UTF-8" standalone="no"?>
<!-- Generator: Adobe Illustrator 23.0.3, SVG Export Plug-In . SVG Version: 6.00 Build 0)  -->

<svg
   xmlns:dc="http://purl.org/dc/elements/1.1/"
   xmlns:cc="http://creativecommons.org/ns#"
   xmlns:rdf="http://www.w3.org/1999/02/22-rdf-syntax-ns#"
   xmlns:svg="http://www.w3.org/2000/svg"
   xmlns="http://www.w3.org/2000/svg"
   xmlns:sodipodi="http://sodipodi.sourceforge.net/DTD/sodipodi-0.dtd"
   xmlns:inkscape="http://www.inkscape.org/namespaces/inkscape"
   version="1.1"
   id="Layer_1"
   x="0px"
   y="0px"
   viewBox="0 0 1000 753.45483"
   xml:space="preserve"
   sodipodi:docname="Houston_Rockets_2019.svg"
   width="1000"
   height="753.45483"
   inkscape:version="0.92.4 (5da689c313, 2019-01-14)"><metadata
     id="metadata35"><rdf:RDF><cc:Work
         rdf:about=""><dc:format>image/svg+xml</dc:format><dc:type
           rdf:resource="http://purl.org/dc/dcmitype/StillImage" /><dc:title></dc:title></cc:Work></rdf:RDF></metadata><defs
     id="defs33" /><sodipodi:namedview
     pagecolor="#ffffff"
     bordercolor="#666666"
     borderopacity="1"
     objecttolerance="10"
     gridtolerance="10"
     guidetolerance="10"
     inkscape:pageopacity="0"
     inkscape:pageshadow="2"
     inkscape:window-width="1920"
     inkscape:window-height="1017"
     id="namedview31"
     showgrid="false"
     inkscape:zoom="0.36419753"
     inkscape:cx="324"
     inkscape:cy="324.00001"
     inkscape:window-x="1912"
     inkscape:window-y="-6"
     inkscape:window-maximized="1"
     inkscape:current-layer="Layer_1"
     fit-margin-top="0"
     fit-margin-left="0"
     fit-margin-right="0"
     fit-margin-bottom="0" /><style
     type="text/css"
     id="style2">
	.st0{fill:#FFFFFF;}
	.st1{fill:#9EA2A2;}
	.st2{fill:#707271;}
	.st3{fill:#373A36;}
	.st4{fill:#061922;}
	.st5{fill:#CE1141;}
</style><g
     id="g28"
     transform="matrix(1.7361111,0,0,1.7361111,-63.211805,-186.14583)"><path
       class="st0"
       d="m 523.19,237.22 c -16.48,-37.54 -43.18,-69.57 -77.26,-92.7 -35.97,-24.4 -77.99,-37.3 -121.52,-37.3 -43.53,0 -85.55,12.9 -121.52,37.3 -34.08,23.12 -60.78,55.16 -77.26,92.7 -73.71,19.35 -89.22,43.49 -89.22,60.37 l 0.08,91.94 c 1.03,15.42 17.23,44.24 114.05,64.36 19.54,26.12 45.07,47.85 73.89,62.88 30.66,15.99 65.23,24.44 99.98,24.44 34.75,0 69.32,-8.45 99.98,-24.44 28.81,-15.02 54.35,-36.76 73.89,-62.88 96.82,-20.12 113.03,-48.95 114.06,-64.51 l 0.07,-91.8 c 0,-16.87 -15.51,-41.01 -89.22,-60.36 z"
       id="path4"
       inkscape:connector-curvature="0"
       style="fill:#ffffff" /><g
       id="g26"><path
         class="st1"
         d="M 518.09,243.18 C 486.32,167.54 411.47,114.27 324.42,114.27 c -87.05,0 -161.9,53.26 -193.67,128.91 -53.77,13.68 -87.29,33 -87.29,54.41 l 0.06,91.47 c 0,-19.25 27.03,-35.33 71.56,-48.62 8.31,108.22 99.02,193.73 209.33,193.73 110.31,0 201.02,-85.51 209.33,-193.73 44.53,13.29 71.56,29.38 71.56,48.62 l 0.06,-91.47 c 0.01,-21.41 -33.5,-40.73 -87.27,-54.41 z"
         id="path6"
         inkscape:connector-curvature="0"
         style="fill:#9ea2a2" /><path
         class="st2"
         d="m 605.12,386.45 c -0.04,-0.33 -0.07,-0.66 -0.13,-0.98 -0.07,-0.37 -0.16,-0.74 -0.25,-1.1 -0.05,-0.22 -0.09,-0.44 -0.15,-0.66 -0.12,-0.45 -0.27,-0.89 -0.42,-1.34 -0.04,-0.13 -0.08,-0.27 -0.13,-0.4 -0.19,-0.52 -0.4,-1.05 -0.63,-1.57 -0.02,-0.05 -0.04,-0.1 -0.06,-0.14 -2.89,-6.42 -8.94,-12.45 -17.72,-18.12 -13.96,9.25 -35.16,17.96 -60.9,24.96 0,0 0,0.01 0,0.01 v 0 c -3.45,10.95 -7.76,21.52 -12.88,31.62 v 0.01 0 c -5.11,10.09 -11.01,19.72 -17.62,28.8 v 0 c 66.27,-13.46 109.49,-34.61 111.09,-58.48 0,-0.61 -0.03,-1.21 -0.08,-1.81 -0.04,-0.27 -0.08,-0.53 -0.12,-0.8 z"
         id="path8"
         inkscape:connector-curvature="0"
         style="fill:#707271" /><path
         class="st2"
         d="m 43.71,386.45 c 0.04,-0.33 0.07,-0.66 0.13,-0.98 0.07,-0.37 0.16,-0.74 0.25,-1.1 0.05,-0.22 0.09,-0.44 0.15,-0.66 0.12,-0.45 0.27,-0.89 0.42,-1.34 0.04,-0.13 0.08,-0.27 0.13,-0.4 0.19,-0.52 0.4,-1.05 0.63,-1.57 0.02,-0.05 0.04,-0.1 0.06,-0.14 2.89,-6.42 8.94,-12.45 17.72,-18.12 13.96,9.25 35.16,17.96 60.9,24.96 0,0 0,0.01 0,0.01 v 0 c 3.45,10.95 7.76,21.52 12.88,31.62 0,0 0,0 0,0.01 v 0 c 5.11,10.09 11.01,19.72 17.62,28.8 0,0 0,0 0,0 C 88.33,434.08 45.11,412.93 43.52,389.07 c 0,-0.61 0.03,-1.21 0.08,-1.81 0.02,-0.28 0.07,-0.54 0.11,-0.81 z"
         id="path10"
         inkscape:connector-curvature="0"
         style="fill:#707271" /><circle
         class="st3"
         cx="324.41"
         cy="324.22"
         r="199.02"
         id="circle12"
         style="fill:#373a36" /><g
         id="g16"><path
           class="st4"
           d="m 578.66,275.69 c -13.22,-8.36 -33.21,-16.25 -57.82,-22.83 -3.83,-1.02 -7.76,-2.01 -11.77,-2.96 -29.45,-73.1 -101.02,-124.7 -184.66,-124.7 -83.64,0 -155.21,51.6 -184.66,124.7 -4.01,0.96 -7.94,1.94 -11.77,2.96 -24.6,6.58 -44.6,14.47 -57.82,22.83 -8.23,5.2 -18.04,13.22 -18.04,21.9 v 62.64 c 14.88,-12.02 38.89,-22.51 71.37,-31.2 0.64,-0.17 1.3,-0.34 1.95,-0.51 2.29,107.92 90.49,194.71 198.96,194.71 108.47,0 196.67,-86.79 198.96,-194.71 0.65,0.17 1.31,0.34 1.95,0.51 32.48,8.68 56.49,19.18 71.37,31.2 v -62.64 c 0.01,-8.68 -9.8,-16.7 -18.02,-21.9 z M 450.61,199.12 c 0.71,-1.51 2.72,-1.87 3.88,-0.67 13.23,13.68 24.31,29.44 32.73,46.74 -1.67,-0.32 -3.34,-0.64 -5.03,-0.95 -10.82,-12.21 -22.95,-23.22 -36.23,-32.75 1.21,-4.28 2.77,-8.41 4.65,-12.37 z m -46.19,-37.21 c 12.23,6.04 23.68,13.42 34.16,21.95 2.25,1.83 2.9,4.97 1.59,7.55 -2.06,4.05 -3.83,8.27 -5.27,12.64 -9.58,-6.03 -19.65,-11.35 -30.15,-15.86 -1.4,-7.54 -3.09,-15 -5.04,-22.38 -0.75,-2.79 2.13,-5.18 4.71,-3.9 z M 350.73,145.2 c 9.1,1.32 17.97,3.32 26.58,5.95 3.24,0.99 5.75,3.53 6.75,6.76 2.51,8.12 4.69,16.38 6.51,24.77 -10.46,-3.65 -21.28,-6.53 -32.4,-8.56 -1.4,-4.64 -3.14,-9.21 -5.22,-13.69 -1.65,-3.54 -3.49,-6.96 -5.51,-10.24 -1.46,-2.37 0.52,-5.39 3.29,-4.99 z m 154.62,179.02 c 0,32.13 -8.38,62.31 -23.07,88.47 -0.87,1.55 -3.25,0.65 -2.87,-1.09 l 0.02,-0.1 c 7.01,-31.37 5.48,-63.32 -4.08,-93.14 -0.84,-2.63 -1.73,-5.26 -2.7,-7.86 -0.44,-1.18 -1.49,-2.03 -2.73,-2.23 l -8.14,-1.33 c -2,-0.33 -3.6,1.66 -2.83,3.54 0.76,1.87 1.48,3.75 2.16,5.63 10.71,29.42 12.86,61.32 5.86,92.61 -0.41,1.81 -0.84,3.62 -1.3,5.41 -7.37,28.52 -27.66,51.8 -54.63,63.64 -22.72,9.97 -47.79,15.58 -74.12,15.74 -11.38,0.07 -22.52,-0.91 -33.33,-2.83 -4.45,-0.79 -5.99,-6.43 -2.54,-9.36 6.29,-5.34 12.39,-10.95 18.29,-16.85 4.21,-4.21 8.28,-8.53 12.22,-12.94 1.67,-1.88 2.54,-4.33 2.47,-6.85 l -0.34,-10.83 c -0.05,-1.64 -2.1,-2.32 -3.14,-1.05 -13.8,16.93 -29.42,32.31 -46.57,45.85 -4.32,3.41 -10.14,4.22 -15.27,2.2 -24.42,-9.59 -46.31,-24.26 -64.41,-42.7 -3.65,-3.72 -5.29,-8.99 -4.17,-14.08 4.85,-22.03 13.67,-43.07 26.08,-62 1.07,-1.63 0.3,-3.83 -1.56,-4.41 -2.3,-0.71 -4.52,-1.47 -6.64,-2.28 -1.23,-0.47 -2.64,-0.04 -3.35,1.07 -10.35,16.09 -18.3,33.58 -23.64,51.86 -1.27,4.37 -7.08,5.28 -9.58,1.48 -16.73,-25.47 -27.39,-55.29 -29.95,-87.34 -0.4,-4.96 -0.61,-9.96 -0.61,-15.02 0,-0.56 0,-1.12 0.01,-1.68 0.21,-23.36 8.92,-45.76 24.28,-63.03 2.57,-2.89 5.31,-5.66 8.25,-8.24 26.72,-23.49 59.57,-40.16 95.81,-47.28 1.07,-4.37 2.29,-8.9 3.69,-13.64 -35.65,5.94 -68.4,20.56 -96.01,41.59 -2.58,1.97 -5.85,-1.35 -3.83,-3.88 33.53,-41.9 85.3,-68.57 143.28,-67.96 0.01,0.01 0.02,0.01 0.04,0.02 6.03,6.61 11.1,14.16 14.99,22.5 0.95,2.04 1.8,4.12 2.59,6.2 -8.23,-0.95 -16.59,-1.45 -25.07,-1.45 -3.97,0 -7.92,0.12 -11.83,0.33 1.16,4.06 2.22,8.26 3.16,12.63 2.88,-0.12 5.76,-0.2 8.67,-0.2 9.83,0 19.5,0.71 28.97,2.05 0.78,3.74 1.31,7.52 1.59,11.31 0.08,1.07 0.83,1.96 1.86,2.24 4.1,1.1 7.82,2.5 11.15,4.17 -0.01,-5.14 -0.42,-10.28 -1.21,-15.37 11.04,2.32 21.76,5.54 32.08,9.56 1.69,10.31 2.85,20.8 3.45,31.44 0.09,1.68 1.33,3.07 2.99,3.34 l 7.65,1.25 c 1.22,0.2 2.33,-0.78 2.27,-2.02 -0.43,-9.42 -1.28,-18.76 -2.53,-28.01 8.48,4.05 16.63,8.67 24.42,13.8 -0.99,5.55 -1.46,11.13 -1.44,16.67 0.01,1.27 0.63,2.41 1.61,3.11 0.46,0.33 1,0.57 1.59,0.67 l 7.75,1.26 c 0.64,0.1 1.22,-0.17 1.57,-0.64 0.22,-0.29 0.34,-0.66 0.32,-1.06 -0.18,-3.88 -0.08,-7.79 0.31,-11.7 6.24,4.76 12.2,9.88 17.85,15.31 17.33,16.66 31.74,36.31 42.42,58.13 1.16,8.28 1.78,16.73 1.78,25.33 -0.01,0.01 -0.01,0.02 -0.01,0.04 z"
           id="path14"
           inkscape:connector-curvature="0"
           style="fill:#061922" /></g><g
         id="g22"><path
           class="st1"
           d="m 365.83,312.8 0.34,-28.63 c -0.03,-13.44 -14,-15.69 -24.31,-15.52 6.92,-2.29 15.24,-6.2 21.27,-12.71 6.32,-5.84 10.83,-14.06 10.05,-25.6 -1.32,-19.42 -25.6,-29.09 -65.85,-25.19 -0.66,0.06 -1.32,0.13 -1.97,0.2 -1.89,-14.35 -4.83,-28.25 -9.3,-41.09 l -1.99,1.98 c -5.35,16.6 -8.55,29.83 -10.41,42.11 -24.02,4.14 -40.85,9.65 -40.85,9.65 l -1.98,1.98 c 0,0 19.43,-1.76 41.57,-1.45 -2.46,25.17 0.05,49.08 -0.03,94.25 -35.77,-1.01 -67.15,4.94 -74.83,14.49 -2.52,2.08 -3.86,4.36 -3.78,6.81 0.39,10.95 32.91,21 78.62,24.84 l 1.95,62.08 1.99,-1.99 3.21,-42.1 c 0.01,-0.69 0.09,-1.27 0.22,-1.77 0.96,0.13 1.87,1.36 1.87,3.5 l 1.41,55.44 1.99,-1.98 3.41,-45.12 c -0.01,-1.01 0.1,-1.84 0.29,-2.5 0.97,0.17 1.86,1.59 1.79,4.13 l 1.58,57.8 1.98,-1.98 2.73,-84.12 c 5.25,0.17 10.61,0.26 16.07,0.26 5.78,0 11.47,-0.1 17.04,-0.28 l 2.76,87.7 1.98,-1.98 2.36,-45.9 c 0.01,-0.92 0.11,-1.69 0.28,-2.31 0.9,0.21 1.73,1.55 1.73,3.92 l 2.37,64.37 1.98,-1.98 2.4,-55.61 c 0.03,-0.79 0.14,-1.46 0.32,-2.02 1.14,-0.01 2.3,1.35 2.35,4.01 l 1.98,73.71 1.98,-1.99 2.89,-123.43 c 39.06,-3.41 68.72,-11.29 76.07,-20.34 2.44,-2.05 3.75,-4.17 3.75,-6.33 -0.58,-12.04 -36.71,-21.32 -79.28,-19.31 m -83.87,33.07 c -31.31,-3.02 -52.46,-9.37 -52.46,-17.4 0,-0.59 0.17,-1.15 0.5,-1.69 7.34,-5.16 29.83,-8.42 52.36,-11.8 -0.03,8.83 -0.16,18.45 -0.45,29.04 z m 63.79,-107.79 c 1.19,8.86 -1.35,15.55 -5.92,20.6 -8.17,7.41 -20.98,10.78 -31.4,12.31 0.18,-16.72 -0.06,-34.07 -1.51,-51.1 20.1,2.15 37.35,7.22 38.83,18.19 m -5.86,109.49 c -4.91,0.14 -9.93,0.22 -15.06,0.22 -6.04,0 -11.93,-0.1 -17.64,-0.3 l 0.23,-7.14 c -0.54,-18.08 0.59,-40.75 0.95,-64.96 14.66,1.7 32.35,5.88 32.04,16.19 z m 77.86,-13.95 c -7.29,5.75 -26.7,10.2 -52.31,12.48 l 0.37,-30.79 c 29.32,3.82 53.11,8.11 53.11,15.14 0,1.09 -0.4,2.15 -1.17,3.17"
           id="path18"
           inkscape:connector-curvature="0"
           style="fill:#9ea2a2" /><path
           class="st5"
           d="m 445.08,332.09 c -0.55,-12.02 -36.68,-21.3 -79.25,-19.3 l 0.34,-28.63 c -0.05,-17.72 -24.31,-15.99 -32.49,-14.91 9.55,-1.73 41.47,-9.7 39.5,-38.93 -1.32,-19.42 -25.6,-29.09 -65.85,-25.19 -0.66,0.06 -1.32,0.13 -1.97,0.2 -1.89,-14.35 -4.83,-28.25 -9.3,-41.09 -5.6,17.36 -8.85,31.04 -10.67,43.8 -24.95,4.17 -42.59,9.94 -42.59,9.94 0,0 19.43,-1.76 41.57,-1.45 -2.5,25.55 0.12,49.79 -0.03,96.29 -42.31,-1.49 -79.04,6.75 -78.6,19.25 0.38,10.95 32.91,21.01 78.62,24.85 l 1.94,62.07 3.21,-42.1 c 0.1,-5.22 4.08,-4.74 4.08,-0.26 l 1.42,55.44 3.41,-45.12 c -0.05,-6.09 4.21,-5.8 4.06,-0.35 l 1.57,57.8 2.79,-86.15 c 5.86,0.21 11.87,0.32 17.99,0.32 5.78,0 11.47,-0.1 17.04,-0.28 l 2.76,87.69 2.36,-45.9 c 0.03,-5.85 3.99,-5.55 3.98,-0.37 l 2.37,64.37 2.41,-55.61 c 0.18,-5.46 4.55,-5.22 4.65,0 l 1.98,73.71 2.93,-125.16 v -0.08 c 46.22,-3.81 79.77,-13.88 79.77,-24.85 M 347.73,236.1 c 3.27,24.29 -21.5,32.28 -39.29,34.89 0.19,-17.44 -0.08,-35.58 -1.7,-53.3 21.01,2.01 39.46,7.05 40.99,18.41 M 229.5,328.47 c 0,-7.42 27.4,-11.34 54.84,-15.46 -0.03,8.82 -0.16,18.45 -0.45,29.03 l 0.13,4.03 c -32.44,-2.94 -54.52,-9.4 -54.52,-17.6 m 77.69,19.02 0.23,-7.14 c -0.56,-18.62 0.66,-42.12 0.99,-67.16 14.99,1.54 34.31,5.62 33.99,16.4 l -0.55,57.91 c -5.52,0.18 -11.21,0.28 -17.02,0.28 -6.04,0.01 -11.93,-0.09 -17.64,-0.29 m 58.25,-1.39 0.39,-33.03 c 30.21,3.9 55.06,8.22 55.06,15.41 0.01,8.22 -22.62,14.7 -55.45,17.62"
           id="path20"
           inkscape:connector-curvature="0"
           style="fill:#ce1141" /></g><path
         class="st0"
         d="m 114.37,270.53 c -3.76,1.26 -7.52,2.55 -11.26,3.88 -2.4,0.85 -4.35,3.57 -4.35,6.03 0,12.91 0,25.83 0,38.74 0,2.46 1.96,3.76 4.35,2.91 3.75,-1.33 7.5,-2.62 11.26,-3.88 2.41,-0.81 4.38,-3.46 4.38,-5.92 0,-12.91 0,-25.83 0,-38.74 0.01,-2.46 -1.97,-3.83 -4.38,-3.02 z m -2.88,41.24 c -1.84,0.62 -3.68,1.26 -5.51,1.9 0,-10.95 0,-21.91 0,-32.86 1.83,-0.64 3.67,-1.27 5.51,-1.9 0,10.96 0,21.91 0,32.86 z m 116.12,-68.32 c -3.89,0.57 -7.77,1.18 -11.64,1.83 -2.48,0.41 -4.51,2.78 -4.51,5.24 0,12.91 0,25.83 0,38.74 0,2.46 2.03,4.12 4.51,3.71 3.88,-0.64 7.76,-1.25 11.64,-1.83 2.49,-0.37 4.52,-2.66 4.52,-5.12 0,-12.91 0,-25.83 0,-38.74 0,-2.47 -2.03,-4.2 -4.52,-3.83 z m -2.97,40.71 c -1.9,0.29 -3.8,0.59 -5.7,0.89 0,-10.95 0,-21.91 0,-32.86 1.9,-0.31 3.8,-0.6 5.7,-0.89 0,10.96 0,21.91 0,32.86 z m -84.45,-21.68 c 2.44,-0.71 4.89,-1.4 7.34,-2.08 0,14.4 0,28.81 0,43.21 0,2.46 -2,5.02 -4.43,5.72 -3.8,1.08 -7.6,2.2 -11.39,3.35 -2.42,0.74 -4.4,-0.65 -4.4,-3.11 0,-14.4 0,-28.81 0,-43.21 2.43,-0.76 4.87,-1.5 7.31,-2.23 0,13.42 0,26.85 0,40.27 1.86,-0.56 3.71,-1.1 5.57,-1.64 0,-13.44 0,-26.86 0,-40.28 z m -57.04,19.38 c 2.39,-0.93 4.78,-1.85 7.17,-2.76 0,15.9 0,31.79 0,47.69 -2.4,0.91 -4.79,1.83 -7.17,2.76 0,-6.71 0,-13.42 0,-20.14 -1.66,0.65 -3.32,1.31 -4.97,1.97 0,6.71 0,13.42 0,20.14 -2.38,0.95 -4.76,1.92 -7.13,2.91 0,-15.9 0,-31.79 0,-47.69 2.37,-0.98 4.75,-1.95 7.13,-2.91 0,6.71 0,13.42 0,20.14 1.66,-0.66 3.31,-1.32 4.97,-1.97 0,-6.72 0,-13.43 0,-20.14 z m 100.61,-30.42 c 6.8,-1.48 13.62,-2.85 20.46,-4.11 0,2.47 0,4.94 0,7.41 -2.17,0.4 -4.35,0.81 -6.52,1.24 0,13.42 0,26.85 0,40.27 -2.48,0.48 -4.97,0.98 -7.45,1.5 0,-13.42 0,-26.85 0,-40.27 -2.17,0.45 -4.33,0.91 -6.5,1.38 0.01,-2.48 0.01,-4.95 0.01,-7.42 z m 76.84,-12.03 c 0,15.9 0,31.79 0,47.69 -2.51,0.24 -5.02,0.5 -7.53,0.77 0,-2.78 0,-5.55 0,-8.33 -1.74,-4.97 -3.49,-9.93 -5.23,-14.88 0,7.93 0,15.86 0,23.8 -2.51,0.29 -5.01,0.6 -7.52,0.92 0,-15.9 0,-31.79 0,-47.69 2.45,-0.31 4.91,-0.61 7.37,-0.9 1.79,5.09 3.59,10.2 5.38,15.3 0,-5.3 0,-10.61 0,-15.91 2.51,-0.27 5.02,-0.52 7.53,-0.77 z m -84.02,18.11 c 0,1.85 0,3.7 0,5.55 -2.47,0.57 -4.94,1.15 -7.41,1.74 0,-0.87 0,-1.74 0,-2.61 -1.88,0.45 -3.75,0.91 -5.62,1.38 0,3.28 0,6.56 0,9.84 3.56,1.67 7.12,3.38 10.68,5.11 1.74,0.85 2.35,2.38 2.35,4.43 0,4.43 0,8.87 0,13.3 0,2.46 -2.01,4.93 -4.47,5.51 -3.84,0.91 -7.67,1.85 -11.49,2.83 -2.45,0.62 -4.45,-0.86 -4.45,-3.32 0,-1.85 0,-3.7 0,-5.55 2.46,-0.65 4.92,-1.28 7.38,-1.89 0,0.87 0,1.74 0,2.61 1.87,-0.47 3.75,-0.93 5.62,-1.38 0,-3.28 0,-6.56 0,-9.84 -3.56,-1.71 -7.12,-3.38 -10.67,-5.03 -1.73,-0.8 -2.33,-2.31 -2.33,-4.36 0,-4.43 0,-8.87 0,-13.3 0,-2.46 2,-5 4.45,-5.62 3.82,-0.98 7.66,-1.92 11.49,-2.83 2.45,-0.58 4.46,0.97 4.47,3.43 z m 257.8,-11.99 c -3.88,-0.65 -7.76,-1.27 -11.64,-1.85 -2.49,-0.37 -4.52,1.35 -4.52,3.81 0,12.91 0,25.83 0,38.74 0,2.46 2.03,4.76 4.52,5.13 3.88,0.58 7.76,1.2 11.64,1.85 2.48,0.42 4.51,-1.24 4.51,-3.7 0,-12.91 0,-25.83 0,-38.74 0,-2.46 -2.03,-4.83 -4.51,-5.24 z m -2.97,39.78 c -1.9,-0.31 -3.8,-0.61 -5.7,-0.91 0,-10.95 0,-21.91 0,-32.86 1.9,0.29 3.8,0.6 5.7,0.91 0,10.95 0,21.9 0,32.86 z m 100.5,-15.62 c 6.66,2.2 13.29,4.5 19.89,6.92 0,2.47 0,4.94 0,7.41 -2.1,-0.77 -4.2,-1.52 -6.31,-2.27 0,13.42 0,26.85 0,40.27 -2.41,-0.85 -4.82,-1.69 -7.24,-2.52 0,-13.42 0,-26.85 0,-40.27 -2.11,-0.72 -4.23,-1.43 -6.34,-2.13 0,-2.47 0,-4.94 0,-7.41 z m 38.75,24.16 c 0,-0.87 0,-1.74 0,-2.61 -1.81,-0.73 -3.63,-1.44 -5.44,-2.15 0,3.28 0,6.56 0,9.84 3.45,3.91 6.89,7.85 10.32,11.82 1.67,1.94 2.25,3.85 2.26,5.9 0,4.43 0,8.87 0,13.3 0,2.46 -1.93,3.67 -4.3,2.71 -3.7,-1.5 -7.41,-2.97 -11.12,-4.4 -2.38,-0.92 -4.33,-3.66 -4.33,-6.12 0,-1.85 0,-3.7 0,-5.55 2.4,0.9 4.79,1.82 7.18,2.75 0,0.87 0,1.74 0,2.61 1.82,0.71 3.63,1.43 5.44,2.15 0,-3.28 0,-6.56 0,-9.84 -3.44,-3.94 -6.89,-7.86 -10.34,-11.74 -1.68,-1.89 -2.28,-3.78 -2.27,-5.83 0,-4.43 0,-8.87 0,-13.3 0,-2.46 1.95,-3.74 4.33,-2.82 3.72,1.43 7.43,2.9 11.12,4.4 2.37,0.96 4.3,3.77 4.3,6.23 0,1.85 0,3.7 0,5.55 -2.39,-0.98 -4.77,-1.95 -7.15,-2.9 z m -73.24,-34.52 c -2.55,7.26 -5.1,14.53 -7.65,21.82 2.55,8.61 5.1,17.23 7.65,25.86 -2.58,-0.7 -5.16,-1.38 -7.74,-2.05 -2.03,-6.86 -4.07,-13.7 -6.11,-20.54 0,6.33 0,12.66 0,18.99 -2.46,-0.61 -4.93,-1.21 -7.4,-1.79 0,-15.9 0,-31.79 0,-47.69 2.47,0.58 4.93,1.18 7.4,1.79 0,6.33 0,12.66 0,18.99 2.04,-5.83 4.07,-11.64 6.11,-17.45 2.58,0.69 5.16,1.37 7.74,2.07 z m -29.6,-2.81 c 0,1.9 0,3.79 0,5.69 -2.47,-0.55 -4.95,-1.08 -7.43,-1.6 0,-0.92 0,-1.83 0,-2.75 -1.89,-0.4 -3.77,-0.78 -5.66,-1.16 0,10.95 0,21.91 0,32.86 1.89,0.38 3.77,0.77 5.66,1.16 0,-0.82 0,-1.64 0,-2.47 2.48,0.52 4.96,1.05 7.43,1.6 0,1.8 0,3.61 0,5.41 0,2.46 -2.02,4.02 -4.48,3.49 -3.85,-0.83 -7.71,-1.62 -11.57,-2.37 -2.47,-0.48 -4.5,-2.88 -4.5,-5.34 0,-12.91 0,-25.83 0,-38.74 0,-2.46 2.03,-4.09 4.5,-3.61 3.86,0.76 7.72,1.55 11.57,2.37 2.46,0.54 4.48,3 4.48,5.46 z m -58.77,8.32 c 0,-6.2 0,-12.41 0,-18.61 0,-2.46 -2.04,-4.74 -4.53,-5.04 -5.41,-0.66 -10.82,-1.25 -16.24,-1.78 v 0 c 0,15.9 0,31.79 0,47.69 2.51,0.24 5.02,0.5 7.53,0.77 0,-6.71 0,-13.42 0,-20.14 1.01,0.11 2.03,0.22 3.04,0.34 1.1,6.84 2.2,13.68 3.3,20.52 2.54,0.3 5.08,0.61 7.61,0.94 -1.12,-6.99 -2.24,-13.98 -3.37,-20.97 1.57,-0.5 2.66,-1.92 2.66,-3.72 z m -7.51,-3.87 c -1.91,-0.22 -3.81,-0.44 -5.72,-0.65 0,-4.24 0,-8.48 0,-12.72 1.91,0.21 3.82,0.42 5.72,0.65 0,4.24 0,8.48 0,12.72 z m 104.14,0.66 c 6.67,1.9 13.31,3.9 19.93,6.02 0,2.47 0,4.94 0,7.41 -4.19,-1.34 -8.39,-2.63 -12.6,-3.88 0,4.24 0,8.48 0,12.72 3.12,0.93 6.24,1.88 9.35,2.85 0,2.47 0,4.94 0,7.41 -3.11,-0.97 -6.23,-1.93 -9.35,-2.85 0,4.24 0,8.48 0,12.72 4.21,1.25 8.41,2.55 12.6,3.88 0,2.47 0,4.94 0,7.41 -6.62,-2.11 -13.27,-4.12 -19.93,-6.02 0,-15.88 0,-31.78 0,-47.67 z"
         id="path24"
         inkscape:connector-curvature="0"
         style="fill:#ffffff" /></g></g></svg>