<?xml version="1.0" encoding="UTF-8" standalone="no"?>
<svg
   xmlns:dc="http://purl.org/dc/elements/1.1/"
   xmlns:cc="http://creativecommons.org/ns#"
   xmlns:rdf="http://www.w3.org/1999/02/22-rdf-syntax-ns#"
   xmlns:svg="http://www.w3.org/2000/svg"
   xmlns="http://www.w3.org/2000/svg"
   xmlns:sodipodi="http://sodipodi.sourceforge.net/DTD/sodipodi-0.dtd"
   xmlns:inkscape="http://www.inkscape.org/namespaces/inkscape"
   height="1206.1841"
   width="1000"
   version="1.1"
   viewBox="0 0 1000 1206.1841"
   id="svg70"
   sodipodi:docname="Memphis_Grizzlies_2018.svg"
   inkscape:version="0.92.3 (2405546, 2018-03-11)">
  <metadata
     id="metadata76">
    <rdf:RDF>
      <cc:Work
         rdf:about="">
        <dc:format>image/svg+xml</dc:format>
        <dc:type
           rdf:resource="http://purl.org/dc/dcmitype/StillImage" />
        <dc:title></dc:title>
      </cc:Work>
    </rdf:RDF>
  </metadata>
  <defs
     id="defs74" />
  <sodipodi:namedview
     pagecolor="#ffffff"
     bordercolor="#666666"
     borderopacity="1"
     objecttolerance="10"
     gridtolerance="10"
     guidetolerance="10"
     inkscape:pageopacity="0"
     inkscape:pageshadow="2"
     inkscape:window-width="1680"
     inkscape:window-height="931"
     id="namedview72"
     showgrid="false"
     inkscape:zoom="0.14920554"
     inkscape:cx="659.13552"
     inkscape:cy="-445.72491"
     inkscape:window-x="0"
     inkscape:window-y="1"
     inkscape:window-maximized="1"
     inkscape:current-layer="svg70"
     fit-margin-top="0"
     fit-margin-left="0"
     fit-margin-right="0"
     fit-margin-bottom="0" />
  <path
     d="m 201.04694,1142.518 a 25.428243,25.428243 0 0 0 -25.34034,-25.3403 h -47.3297 v 89.0053 h 20.733 v -27.8534 h 19.26702 a 11.497225,11.497225 0 0 1 11.09946,11.3089 v 16.3351 h 20.73294 v -16.3351 a 31.849117,31.849117 0 0 0 -6.49213,-19.267 25.49773,25.49773 0 0 0 7.32987,-18.0104 v -9.8431 z m -25.34034,-4.6072 a 4.6482686,4.6482686 0 0 1 4.60734,4.6073 v 10.0523 a 5.1847598,5.1847598 0 0 1 -5.23564,5.2356 h -25.9684 v -19.6859 h 26.59689 z"
     id="path2"
     inkscape:connector-curvature="0"
     style="fill:#12173f;stroke-width:6.10065031" />
  <polygon
     points="97.355,197.714 97.355,183.124 100.753,183.124 100.753,194.315 109.438,194.315 109.438,197.714 "
     id="polygon4"
     style="fill:#12173f"
     transform="matrix(6.1006505,0,0,6.1006505,0,5.2244584e-5)" />
  <polygon
     points="134.395,191.947 141.878,191.947 141.878,188.548 134.395,188.548 134.395,186.523 143.08,186.523 143.08,183.124 130.996,183.124 130.996,197.714 143.08,197.714 143.08,194.315 134.395,194.315 "
     id="polygon6"
     style="fill:#12173f"
     transform="matrix(6.1006505,0,0,6.1006505,0,5.2244584e-5)" />
  <polygon
     points="66.665,194.315 66.665,197.714 53.552,197.714 61.07,186.523 54.376,186.523 54.376,183.124 67.455,183.124 59.937,194.315 "
     id="polygon8"
     style="fill:#12173f"
     transform="matrix(6.1006505,0,0,6.1006505,0,5.2244584e-5)" />
  <polygon
     points="87.743,194.315 87.743,197.714 74.629,197.714 82.147,186.523 75.453,186.523 75.453,183.124 88.532,183.124 81.014,194.315 "
     id="polygon10"
     style="fill:#12173f"
     transform="matrix(6.1006505,0,0,6.1006505,0,5.2244584e-5)" />
  <rect
     x="719.37158"
     y="1117.1777"
     width="20.732939"
     height="89.005196"
     id="rect12"
     style="fill:#12173f;stroke-width:6.10065031" />
  <rect
     x="256.12561"
     y="1117.1777"
     width="20.732939"
     height="89.005196"
     id="rect14"
     style="fill:#12173f;stroke-width:6.10065031" />
  <rect
     x="256.12561"
     y="1117.1777"
     width="20.732939"
     height="89.005196"
     id="rect16"
     style="fill:#12173f;stroke-width:6.10065031" />
  <path
     d="m 608.37688,922.2039 h -75.81157 v 162.932 h 37.48691 v -52.3558 h 38.32429 a 45.761589,45.761589 0 0 0 45.65446,-45.65442 V 967.85842 A 45.761528,45.761528 0 0 0 608.37688,922.2039 Z m 8.16755,64.92148 a 8.1775559,8.1775559 0 0 1 -8.16749,8.16755 h -38.3246 v -35.60212 h 38.3246 a 8.1774949,8.1774949 0 0 1 8.16749,8.16755 z"
     id="path18"
     inkscape:connector-curvature="0"
     style="fill:#12173f;stroke-width:6.10065031" />
  <path
     d="m 552.87944,1085.1359 h -3.14135 V 939.37674 h 58.63879 a 28.511451,28.511451 0 0 1 28.48168,28.48168 v 19.26702 a 28.51139,28.51139 0 0 1 -28.48168,28.48166 h -55.49762 z m 0,-72.6702 h 55.49762 a 25.293907,25.293907 0 0 0 25.34027,-25.34032 v -19.26702 a 25.293907,25.293907 0 0 0 -25.34027,-25.34033 h -55.49762 z"
     id="path20"
     inkscape:connector-curvature="0"
     style="fill:#5d76a9;stroke-width:6.10065031" />
  <polygon
     points="38.104,167.608 50.016,167.608 50.016,161.463 38.104,161.463 38.104,157.31 52.213,157.31 52.213,151.165 31.96,151.165 31.96,177.872 52.179,177.872 52.179,171.762 38.104,171.762 "
     id="polygon22"
     style="fill:#12173f"
     transform="matrix(6.1006505,0,0,6.1006505,0,5.2244584e-5)" />
  <polygon
     points="35.289,164.793 50.016,164.793 50.016,164.278 35.289,164.278 35.289,154.495 52.213,154.495 52.213,153.98 34.774,153.98 34.774,175.057 52.179,175.057 52.179,174.577 35.289,174.577 "
     id="polygon24"
     style="fill:#5d76a9"
     transform="matrix(6.1006505,0,0,6.1006505,0,5.2244584e-5)" />
  <path
     d="M 467.01559,922.41334 H 337.80095 V 1085.136 h 37.48697 V 959.90031 h 31.20416 v 125.44509 h 37.48691 V 959.90037 h 23.0366 a 8.1775559,8.1775559 0 0 1 8.16755,8.16755 V 1085.136 h 37.48691 V 968.06798 a 45.76165,45.76165 0 0 0 -45.65446,-45.65464"
     id="path26"
     inkscape:connector-curvature="0"
     style="fill:#12173f;stroke-width:6.10065031" />
  <path
     d="M 467.01559,939.58618 H 354.97373 v 145.54972 h 3.14135 V 942.7274 h 65.54972 v 142.6177 h 3.14134 V 942.7274 h 40.20939 a 25.293907,25.293907 0 0 1 25.34033,25.34034 v 117.06806 h 3.14135 V 968.06786 a 28.51139,28.51139 0 0 0 -28.48168,-28.48168"
     id="path28"
     inkscape:connector-curvature="0"
     style="fill:#5d76a9;stroke-width:6.10065031" />
  <path
     d="M 129.21464,922.41334 H 0 V 1085.136 H 37.486911 V 959.90031 H 68.691067 V 1085.3454 H 106.17798 V 959.90037 h 23.03666 a 8.1774949,8.1774949 0 0 1 8.16749,8.16755 V 1085.136 h 37.48692 V 968.06798 a 45.761589,45.761589 0 0 0 -45.65441,-45.65464"
     id="path30"
     inkscape:connector-curvature="0"
     style="fill:#12173f;stroke-width:6.10065031" />
  <path
     d="M 129.21464,939.58618 H 17.172782 v 145.54972 h 3.141347 V 942.7274 h 65.54972 v 142.6177 h 3.141347 V 942.7274 h 40.209384 a 25.293968,25.293968 0 0 1 25.34034,25.34034 v 117.06806 h 3.14134 V 968.06786 a 28.51139,28.51139 0 0 0 -28.48168,-28.48168"
     id="path32"
     inkscape:connector-curvature="0"
     style="fill:#5d76a9;stroke-width:6.10065031" />
  <rect
     x="817.17273"
     y="922.20398"
     width="37.486912"
     height="162.93196"
     id="rect34"
     style="fill:#12173f;stroke-width:6.10065031" />
  <rect
     x="834.34552"
     y="922.20398"
     width="3.1413469"
     height="162.93196"
     id="rect36"
     style="fill:#5d76a9;stroke-width:6.10065031" />
  <polygon
     points="116.201,167.608 123.856,167.608 123.856,177.872 129.966,177.872 129.966,151.165 123.856,151.165 123.856,161.463 116.201,161.463 116.201,151.165 110.09,151.165 110.09,177.872 116.201,177.872 "
     id="polygon38"
     style="fill:#12173f"
     transform="matrix(6.1006505,0,0,6.1006505,0,5.2244584e-5)" />
  <polygon
     points="113.386,164.793 126.637,164.793 126.637,177.872 127.151,177.872 127.151,151.165 126.637,151.165 126.637,164.278 113.386,164.278 113.386,151.165 112.905,151.165 112.905,177.872 113.386,177.872 "
     id="polygon40"
     style="fill:#5d76a9"
     transform="matrix(6.1006505,0,0,6.1006505,0,5.2244584e-5)" />
  <path
     d="M 72.670155,1206.183 H 25.340333 A 25.428243,25.428243 0 0 1 0,1180.8427 v -38.3243 a 25.428182,25.428182 0 0 1 25.340333,-25.3402 h 21.989489 a 25.428182,25.428182 0 0 1 25.340333,25.3402 v 4.1885 H 51.937156 v -4.1885 a 4.6482076,4.6482076 0 0 0 -4.607334,-4.6073 H 25.340333 a 4.6482076,4.6482076 0 0 0 -4.607333,4.6073 v 38.3243 a 4.6482076,4.6482076 0 0 0 4.607333,4.6073 h 26.596823 v -8.1675 H 39.58102 v -20.7331 h 33.089013 z"
     id="path42"
     inkscape:connector-curvature="0"
     style="fill:#12173f;stroke-width:6.10065031" />
  <path
     d="M 72.670155,1206.183 H 25.340333 A 25.428243,25.428243 0 0 1 0,1180.8427 v -38.3243 a 25.428182,25.428182 0 0 1 25.340333,-25.3402 h 21.989489 a 25.428182,25.428182 0 0 1 25.340333,25.3402 v 4.1885 H 51.937156 v -4.1885 a 4.6482076,4.6482076 0 0 0 -4.607334,-4.6073 H 25.340333 a 4.6482076,4.6482076 0 0 0 -4.607333,4.6073 v 38.3243 a 4.6482076,4.6482076 0 0 0 4.607333,4.6073 h 26.596823 v -8.1675 H 39.58102 v -20.7331 h 33.089013 z"
     id="path44"
     inkscape:connector-curvature="0"
     style="fill:#12173f;stroke-width:6.10065031" />
  <path
     d="m 974.03132,1206.183 h -22.19893 a 25.428243,25.428243 0 0 1 -25.34021,-25.3403 v -3.1414 h 20.733 v 3.1414 a 4.6482076,4.6482076 0 0 0 4.6074,4.6073 h 22.19886 a 4.6482076,4.6482076 0 0 0 4.60733,-4.6073 v -3.7696 l -38.53402,-10.2618 a 19.105285,19.105285 0 0 1 -13.40313,-18.2199 v -5.4451 a 25.964002,25.964002 0 0 1 25.96864,-25.9686 h 21.57062 a 25.428243,25.428243 0 0 1 25.34027,25.3403 v 4.1885 h -20.73306 v -4.1885 a 4.6482076,4.6482076 0 0 0 -4.60734,-4.6074 h -21.57068 a 5.1846378,5.1846378 0 0 0 -5.23557,5.2356 v 4.1885 l 38.53408,10.2618 a 19.105468,19.105468 0 0 1 13.40313,18.22 v 5.0262 a 25.294151,25.294151 0 0 1 -25.34039,25.3403"
     id="path46"
     inkscape:connector-curvature="0"
     style="fill:#12173f;stroke-width:6.10065031" />
  <path
     d="m 953.92656,1084.9264 h -76.85868 v -51.7278 h 37.48673 v 14.4503 h 39.37171 a 8.4925325,8.4925325 0 0 0 8.5863,-8.5863 v -7.5393 L 901.3608,1012.6752 A 34.116546,34.116546 0 0 1 877.06758,980.00506 V 968.2773 a 46.073943,46.073943 0 0 1 46.07333,-46.07334 h 76.85868 v 53.82202 h -37.48697 v -16.33505 h -39.37171 a 8.4925935,8.4925935 0 0 0 -8.5863,8.58643 v 9.42404 l 60.94233,18.63877 a 34.367465,34.367465 0 0 1 24.50265,33.08893 v 9.4241 a 46.208279,46.208279 0 0 1 -46.07327,46.0732"
     id="path48"
     inkscape:connector-curvature="0"
     style="fill:#12173f;stroke-width:6.10065031" />
  <path
     d="m 953.92656,1067.7537 h -59.68589 v -34.7644 h 3.14134 v 31.623 h 56.54455 a 25.740658,25.740658 0 0 0 25.75909,-25.7591 v -9.4241 a 14.580555,14.580555 0 0 0 -10.26179,-13.822 l -63.03661,-19.47637 a 17.025146,17.025146 0 0 1 -12.1464,-16.33504 v -11.72777 a 28.958446,28.958446 0 0 1 28.90049,-28.90049 h 59.68565 v 36.64917 h -3.35078 v -33.50782 h -56.54449 a 25.740719,25.740719 0 0 0 -25.75914,25.75914 v 11.72777 a 13.950357,13.950357 0 0 0 9.84297,13.40313 l 63.03662,19.47648 a 17.532476,17.532476 0 0 1 12.35607,16.7539 v 9.4241 a 28.341853,28.341853 0 0 1 -28.48174,28.9003"
     id="path50"
     inkscape:connector-curvature="0"
     style="fill:#5d76a9;stroke-width:6.10065031" />
  <path
     d="m 895.49728,200.31925 a 132.99497,132.99497 0 0 0 16.5446,-62.82724 138.60544,138.60544 0 0 0 -62.199,-112.670168 C 799.16221,-9.5236478 723.35077,-14.340448 669.52876,49.952742 A 342.01131,342.01131 0 0 0 500.31435,71.104612 341.55907,341.55907 0 0 0 331.09944,49.952742 C 277.27749,-14.340448 201.25655,-9.5236478 150.78532,24.821912 A 138.07602,138.07602 0 0 0 88.586386,137.49201 135.48575,135.48575 0 0 0 105.13092,200.31925 c -40.628316,58.42929 -68.691125,127.95804 -68.691125,198.53396 0,85.02623 36.439796,129.00527 50.05236,147.85341 l 10.890088,-10.89008 c 38.534147,98.01053 104.293057,150.7853 183.874277,198.74343 0,0 1.67542,-9.63354 3.35084,-18.42933 85.65442,74.13614 126.49211,55.91624 215.49737,156.64921 88.79576,-100.31416 130.68057,-83.14138 215.4973,-156.64921 1.67536,8.58642 3.35084,18.42933 3.35084,18.42933 35.39262,-21.36131 135.28803,-74.97382 183.87428,-198.74343 l 10.89009,10.89008 c 8.37692,-11.51833 50.05236,-58.01047 50.05236,-147.85341 0.4185,-70.57586 -27.64412,-139.89524 -68.27238,-198.53396"
     id="path52"
     inkscape:connector-curvature="0"
     style="fill:#707271;stroke-width:6.10065031" />
  <path
     d="M 870.99469,201.57581 C 952.6702,76.130752 767.32975,-54.340348 677.69631,71.942292 A 318.52283,318.52283 0 0 0 500.31435,93.722412 318.52271,318.52271 0 0 0 322.93183,71.942292 C 233.08896,-54.340348 47.958128,76.130752 129.63351,201.57581 36.649231,329.32446 45.863897,455.39776 89.005257,514.66473 L 106.80628,496.8637 c 0,0 25.34034,123.14124 159.37175,204.18839 l 4.81677,-26.59689 c 82.51307,88.16758 157.90576,86.07335 229.10993,166.70156 71.20417,-80.41878 146.5968,-78.53398 229.10993,-166.70156 l 4.81676,26.59689 C 868.06271,620.21438 893.40311,496.8637 893.40311,496.8637 l 17.80103,17.80103 c 43.7696,-59.4764 52.98415,-185.13089 -40.20939,-313.08892"
     id="path54"
     inkscape:connector-curvature="0"
     style="fill:#12173f;stroke-width:6.10065031" />
  <path
     d="m 501.15178,670.47624 c 0,0 -64.29323,1.04711 -73.9267,6.911 0,0 -11.09941,19.05757 73.9267,18.84814 80.83771,-0.41912 68.90075,-15.07855 69.52881,-17.38216 a 259.13587,259.13587 0 0 0 -69.52881,-8.37698"
     id="path56"
     inkscape:connector-curvature="0"
     style="fill:#5d76a9;stroke-width:6.10065031" />
  <path
     d="m 445.44509,595.71187 c 0,0 10.05229,-29.10993 20.73294,-19.89532 14.86912,12.77476 34.13613,38.74344 34.13613,41.4661 v 34.555 l -23.45553,1.25673 a 528.36172,528.36172 0 0 0 -56.96336,10.68066 C 359.99981,515.50247 393.29826,403.46042 409.21449,363.25103 349.94746,376.0258 340.31374,304.82175 340.31374,304.82175 a 46.915466,46.915466 0 0 1 25.54953,6.28269 296.55183,296.55183 0 0 1 49.42411,32.0419 v 0 c 4.3979,3.35078 8.37693,6.70157 12.1464,9.84291 40.41882,33.9267 73.08902,27.0157 73.08902,27.0157 v 145.13099 c -0.20845,0.20938 -117.90507,-9.00523 -55.07771,70.57593"
     id="path58"
     inkscape:connector-curvature="0"
     style="fill:#5d76a9;stroke-width:6.10065031" />
  <path
     d="m 555.81147,595.71187 c 74.97377,-76.02094 -47.32988,-71.62329 -55.0785,-70.36655 12.56539,0.62836 107.22503,1.25673 55.0785,70.36649"
     id="path60"
     inkscape:connector-curvature="0"
     style="fill:#5d76a9;stroke-width:6.10065031" />
  <path
     d="m 605.4449,365.7645 c 67.43458,181.57061 -18.01046,298.42929 -18.6387,299.05753 52.98414,-139.05754 19.05757,-254.45024 -4.18847,-297.38229 a 189.55715,189.55715 0 0 1 -26.17789,0.41887 241.69087,241.69087 0 0 0 29.5288,-21.57068 c 0.83768,-0.83768 1.67536,-1.46598 2.72247,-2.5131 a 172.02169,172.02169 0 0 1 50.47123,-32.25127 v 0 a 108.09688,108.09688 0 0 1 25.75915,-6.49219 c 0,0 -6.28276,59.89527 -59.47647,60.73301"
     id="path62"
     inkscape:connector-curvature="0"
     style="fill:#5d76a9;stroke-width:6.10065031" />
  <path
     d="m 712.25094,130.79045 c 0,0 27.43463,-68.691068 111.83243,-52.146588 0,0 -77.48686,-50.89004 -131.30888,41.047118 0,0 -77.27748,-36.230358 -192.46069,13.61257 0,0 -108.27227,-38.115218 -190.57591,-16.54454 0,0 -47.95812,-83.350738 -115.60208,-49.005238 -67.64395,34.345498 -32.25102,113.507848 -20.5235,134.240848 0,0 -112.041861,114.13609 -69.94762,255.0785 l 22.6178,-28.06299 c 0,0 32.25127,153.7173 115.18321,202.09422 l 5.0262,-37.69627 c 0,0 86.70178,104.50272 188.48186,148.90075 9.63353,4.6074 63.66492,31.41366 65.34034,44.60735 v -73.08915 c 0,0 -70.57592,5.86389 -89.42413,-26.80626 -12.77476,-22.19892 -94.0314,-167.12034 -53.82195,-318.95278 0,0 -39.16227,-5.86389 -46.49214,-71.83248 a 138.35568,138.35568 0 0 0 -65.34029,-11.3089 c 0,0 64.71198,-20.31413 125.445,3.14135 60.73301,23.45548 77.06805,83.35081 118.11518,56.96336 l 11.3089,-168.58635 12.35607,168.58635 c 41.04713,26.38745 57.38217,-33.29839 118.11512,-56.96336 60.73301,-23.45548 125.65443,-3.14135 125.65443,-3.14135 a 194.23251,194.23251 0 0 0 -67.64401,-26.59682 c -34.76438,-6.911 -85.86385,15.28793 -85.86385,15.28793 0,0 7.12043,-47.7487 30.36647,-73.2984 20.10476,-21.98962 65.34029,-26.80638 79.16204,-69.52887 z m -523.97877,58.01047 c -2.5131,-23.03666 26.59683,-45.65446 26.59683,-45.65446 -11.93715,-12.35601 -32.87958,-1.67542 -32.87958,-1.67542 18.84826,-37.06804 61.36132,-18.84796 61.36132,-18.84796 -16.12567,-19.68589 -50.05236,-18.42933 -50.05236,-18.42933 42.09449,-41.884748 92.98428,21.98955 92.98428,21.98955 -45.23559,10.2616 -98.01049,62.61762 -98.01049,62.61762 z"
     id="path64"
     inkscape:connector-curvature="0"
     style="fill:#5d76a9;stroke-width:6.10065031" />
  <path
     d="m 415.28793,343.35584 c -6.49219,-2.09423 -17.17284,4.60733 -23.2461,16.3351 C 371.93708,353.82706 365.02614,332.047 365.86394,311.314 v 0 a 296.5514,296.5514 0 0 1 49.42411,32.04184"
     id="path66"
     inkscape:connector-curvature="0"
     style="fill:#ffbb22;stroke-width:6.10065031" />
  <path
     d="m 612.98421,359.69094 c -6.28276,-12.35601 -17.80103,-19.05758 -24.29322,-15.91623 a 172.02169,172.02169 0 0 1 50.47123,-32.25127 v 0 c 0.83768,20.73294 -6.07332,42.51305 -26.17789,48.1675"
     id="path68"
     inkscape:connector-curvature="0"
     style="fill:#ffbb22;stroke-width:6.10065031" />
</svg>
