<?xml version="1.0" encoding="UTF-8" standalone="no"?>
<!-- Created with Inkscape (http://www.inkscape.org/) -->

<svg
   xmlns:dc="http://purl.org/dc/elements/1.1/"
   xmlns:cc="http://creativecommons.org/ns#"
   xmlns:rdf="http://www.w3.org/1999/02/22-rdf-syntax-ns#"
   xmlns:svg="http://www.w3.org/2000/svg"
   xmlns="http://www.w3.org/2000/svg"
   xmlns:sodipodi="http://sodipodi.sourceforge.net/DTD/sodipodi-0.dtd"
   xmlns:inkscape="http://www.inkscape.org/namespaces/inkscape"
   id="svg3261"
   version="1.1"
   inkscape:version="0.92.3 (2405546, 2018-03-11)"
   width="1000"
   height="435.48557"
   sodipodi:docname="Utah_Jazz_2016.svg">
  <metadata
     id="metadata3267">
    <rdf:RDF>
      <cc:Work
         rdf:about="">
        <dc:format>image/svg+xml</dc:format>
        <dc:type
           rdf:resource="http://purl.org/dc/dcmitype/StillImage" />
        <dc:title></dc:title>
      </cc:Work>
    </rdf:RDF>
  </metadata>
  <defs
     id="defs3265">
    <clipPath
       id="clipPath3091"
       clipPathUnits="userSpaceOnUse">
      <path
         id="path3093"
         d="m 64.923,102.677 h 261.11 V 221.322 H 64.923 Z"
         inkscape:connector-curvature="0" />
    </clipPath>
  </defs>
  <sodipodi:namedview
     pagecolor="#ffffff"
     bordercolor="#666666"
     borderopacity="1"
     objecttolerance="10"
     gridtolerance="10"
     guidetolerance="10"
     inkscape:pageopacity="0"
     inkscape:pageshadow="2"
     inkscape:window-width="1366"
     inkscape:window-height="706"
     id="namedview3263"
     showgrid="false"
     inkscape:snap-nodes="true"
     fit-margin-top="0"
     fit-margin-left="0"
     fit-margin-right="0"
     fit-margin-bottom="0"
     inkscape:zoom="0.51164316"
     inkscape:cx="493.02005"
     inkscape:cy="-19.02534"
     inkscape:window-x="-8"
     inkscape:window-y="-8"
     inkscape:window-maximized="1"
     inkscape:current-layer="svg3261" />
  <g
     id="g3639"
     transform="matrix(3.5723276,0,0,3.5723276,0.86463835,-72.187853)">
    <path
       inkscape:connector-curvature="0"
       d="m 194.37846,128.83425 h -15.95675 l 0.0668,-0.15309 24.90815,-56.972699 h 16.28555 l -25.30373,57.125789 z m -105.81289,-20.90817 4.168483,-9.062371 1.962485,9.062371 z m 145.9976,20.8979 0.0514,-0.12844 28.41493,-64.966482 1.35936,-3.092712 h -10.49467 l -0.0113,0.02466 h -45.65193 l 0.0103,-0.02466 h -76.54515 l -0.63395,1.132282 -3.70715,6.64368 -1.83096,3.289989 H 163.5603 L 140.45332,123.8294 121.80046,62.211471 121.32371,60.647648 h -10.31486 l 0.006,0.01541 H 94.616285 l -0.579499,1.322366 -33.342727,76.065316 -1.356273,3.09579 h 15.4687 l 0.551756,-1.3984 7.338256,-18.56655 h 15.055653 l 5.430229,18.38572 0.46956,1.57923 h 31.68848 l -0.005,-0.0206 h 127.37351 l 0.57744,-1.33161 3.41945,-7.88179 1.33675,-3.0886 h -33.47938 z"
       style="fill:#ffffff;fill-opacity:1;fill-rule:nonzero;stroke:none"
       id="path3085" />
    <path
       inkscape:connector-curvature="0"
       d="m 95.871452,20.207512 -0.581553,1.310036 c -2.172091,4.885664 -26.974412,59.986291 -27.225117,60.542157 -0.562031,1.21037 -1.440525,2.195723 -2.174146,2.878997 -0.429486,-0.596966 -0.876439,-1.182629 -1.339832,-1.74877 -0.418184,-0.519904 -0.840478,-1.00282 -1.270992,-1.473405 -0.02569,-0.02774 -0.05035,-0.06268 -0.07706,-0.09145 C 62.979789,81.386702 62.762991,81.11853 62.539,80.887347 l -0.62368,-0.602103 -1.424086,-1.377849 -0.04213,0.03391 c -6.441268,-5.677851 -14.921053,-9.130181 -24.217685,-9.130181 -20.14373,0 -36.47345681,16.180743 -36.47345681,36.151856 0,19.96392 16.32972681,36.1498 36.47345681,36.1498 20.141675,0 36.467292,-16.18588 36.467292,-36.1498 4.884209,-15.519985 13.748515,-30.511296 19.977275,-45.837902 0.711015,-1.897754 1.181601,-2.750562 4.856894,-3.075245 0.893907,-0.06987 5.68298,-0.194194 27.53336,-0.194194 13.26783,0 27.76043,0.05137 30.68669,0.0822 l 1.29976,0.0113 -0.002,0.0072 h 10.46076 l 0.57231,-1.34086 13.77438,-32.335798 1.30387,-3.072163 H 95.871496 Z"
       style="fill:#ffffff;fill-opacity:1;fill-rule:nonzero;stroke:none"
       id="path3097"
       sodipodi:nodetypes="cccccccccccssscccsccccccccc" />
    <path
       inkscape:connector-curvature="0"
       d="m 85.058775,110.11698 8.371901,-18.205904 3.94552,18.205904 z M 109.44497,63.100559 H 95.894571 l -33.23587,75.818721 h 10.586118 l 7.887958,-19.96701 h 18.208986 l 5.900817,19.96701 h 27.06688 z"
       style="fill:#0c2340;fill-opacity:1;fill-rule:nonzero;stroke:none"
       id="path3101" />
    <path
       inkscape:connector-curvature="0"
       d="m 194.53977,62.847693 h -61.54703 l -3.70715,6.645735 h 37.66945 l -30.77712,69.425742 h 52.69222 l 3.45541,-7.87768 h -27.56521 z"
       style="fill:#0c2340;fill-opacity:1;fill-rule:nonzero;stroke:none"
       id="path3105" />
    <path
       inkscape:connector-curvature="0"
       d="m 204.86182,62.847693 h -5.64086 l -27.86445,62.894487 h 6.87897 z"
       style="fill:#00471b;fill-opacity:1;fill-rule:nonzero;stroke:none"
       id="path3109"
       sodipodi:nodetypes="ccccc" />
    <path
       inkscape:connector-curvature="0"
       d="M 250.66828,62.866907 H 208.817 l -3.21704,6.635461 h 17.47742 l -30.75245,69.417522 h 68.93563 l 3.41329,-7.88488 h -43.79116 z"
       style="fill:#0c2340;fill-opacity:1;fill-rule:nonzero;stroke:none"
       id="path3113" />
    <path
       inkscape:connector-curvature="0"
       d="m 261.00401,62.847693 h -5.66552 l -27.22947,62.908867 h 5.65935 z"
       style="fill:#00471b;fill-opacity:1;fill-rule:nonzero;stroke:none"
       id="path3117"
       sodipodi:nodetypes="ccccc" />
    <path
       inkscape:connector-curvature="0"
       d="m 70.571318,105.93175 c 0,18.70012 -15.294028,33.86263 -34.159573,33.86263 -18.862464,0 -34.155464,-15.16251 -34.155464,-33.86263 0,-18.711424 15.293,-33.875989 34.155464,-33.875989 18.865545,0 34.159573,15.164565 34.159573,33.875989"
       style="fill:#ffffff;fill-opacity:1;fill-rule:nonzero;stroke:none"
       id="path3121" />
    <path
       inkscape:connector-curvature="0"
       d="m 24.006577,104.79823 c -0.59902,-8.929822 -4.887719,-17.504136 -11.526262,-23.029919 -0.280501,0.247623 -0.777801,0.792187 -0.757252,0.761362 -5.4754365,5.59668 -9.0356519,13.11269 -9.4507535,22.268557 z"
       style="fill:#0c2340;fill-opacity:1;fill-rule:nonzero;stroke:none"
       id="path3125" />
    <path
       inkscape:connector-curvature="0"
       d="m 9.9472713,127.3402 1.5751257,1.82789 1.449773,1.41278 c 6.184397,-5.24425 10.272737,-13.8124 11.015605,-22.74223 H 2.3202932 c 0.3154361,7.6424 3.5735727,14.79468 7.6269781,19.50156"
       style="fill:#0c2340;fill-opacity:1;fill-rule:nonzero;stroke:none"
       id="path3129" />
    <path
       inkscape:connector-curvature="0"
       d="m 14.601238,79.782708 -0.199331,0.195221 -0.163369,0.165424 -0.09145,0.08939 c 7.359834,6.252211 11.571471,14.979619 12.041029,24.532097 h 8.369846 V 72.1023 c -8.352379,0.504492 -14.908724,3.394791 -19.956729,7.680407 m 0.217826,52.371643 c 5.737443,4.74593 13.45073,7.46155 19.750205,7.60437 l -0.0113,-32.06865 h -8.356489 c -0.328793,9.44973 -4.33699,18.18741 -11.382414,24.46428"
       style="fill:#f9a01b;fill-opacity:1;fill-rule:nonzero;stroke:none"
       id="path3133" />
    <path
       inkscape:connector-curvature="0"
       d="m 59.783609,130.68238 1.302844,-1.33059 c 0,0 0.553811,-0.5497 1.282294,-1.37271 4.749009,-5.41379 7.769797,-12.62463 8.178734,-20.12729 H 48.916989 c 0.742867,8.96065 4.705855,17.56065 10.86662,22.83059"
       style="fill:#0c2340;fill-opacity:1;fill-rule:nonzero;stroke:none"
       id="path3137" />
    <path
       inkscape:connector-curvature="0"
       d="m 46.035115,107.72048 h -8.550682 l 0.01952,32.05838 c 6.698137,-0.29283 13.723012,-2.22758 20.184829,-7.35367 -7.080359,-6.29742 -11.327958,-15.25293 -11.653669,-24.70471 m 12.21159,-27.576514 0.137683,-0.15104 -0.09864,-0.09864 -0.288722,-0.242485 C 52.903813,75.353858 45.324099,72.310464 37.503955,72.074144 l -0.01952,0.988435 v 31.735751 h 8.568149 C 46.52625,95.229415 50.911531,86.356105 58.246705,80.143966"
       style="fill:#00471b;fill-opacity:1;fill-rule:nonzero;stroke:none"
       id="path3141" />
    <path
       inkscape:connector-curvature="0"
       d="m 119.68626,62.85653 h -5.70045 l 20.61135,69.06631 2.77534,-8.83094 z"
       style="fill:#00471b;fill-opacity:1;fill-rule:nonzero;stroke:none"
       id="path3145"
       sodipodi:nodetypes="ccccc" />
    <path
       inkscape:connector-curvature="0"
       d="m 97.309718,22.41649 c -2.201888,4.941147 -27.229226,60.550377 -27.229226,60.550377 -1.387097,2.975579 -2.684894,6.709738 -2.829768,6.805293 l -0.765897,1.870369 -1.916492,-4.581158 c -1.221673,-1.903919 -2.116876,-3.19546 -3.577952,-4.682222 l -0.554839,-0.574361 c -6.637515,5.519618 -10.97245,14.063108 -11.576608,22.992932 h 21.690086 c 5.185655,-15.364227 13.848135,-30.216376 20.059481,-45.449518 1.031589,-2.748506 2.286141,-4.104779 6.731016,-4.497276 3.978391,-0.321601 53.046691,-0.181864 58.434791,-0.119188 L 169.5302,22.41649 Z"
       style="fill:#0c2340;fill-opacity:1;fill-rule:nonzero;stroke:none"
       id="path3149"
       sodipodi:nodetypes="cccccccccccccc" />
    <path
       inkscape:connector-curvature="0"
       d="m 179.82462,22.41649 h -5.67374 l -13.76206,32.333743 h 5.66039 z"
       style="fill:#00471b;fill-opacity:1;fill-rule:nonzero;stroke:none"
       id="path3153" />
    <path
       style="fill:#0c2340;fill-opacity:1;stroke:none"
       d="m 178.51965,55.128366 c -1.46216,-0.312975 -2.98709,-0.607924 -2.08795,-4.623316 l 12.5277,-27.292478 h 5.81643 l -11.18544,25.204529 c -0.74476,2.110461 -0.40415,2.395734 0.39087,2.684506 h 5.27642 c 1.13109,-0.02462 1.74184,-1.089917 2.23708,-2.386227 l 11.63286,-25.651947 h 5.36902 l -12.5277,28.038174 c -1.02601,2.670726 -2.85503,3.735413 -5.07073,4.026759 z"
       id="path3373"
       inkscape:connector-curvature="0"
       sodipodi:nodetypes="ccccccccccccc" />
    <path
       style="fill:#0c2340;fill-opacity:1;fill-rule:evenodd;stroke:none"
       d="M 213.65625,23 211,27.96875 h 8.59375 l -11.625,26.8125 h 5 l 11.625,-26.8125 h 8.375 L 235.625,23 h -8.875 -5 z"
       id="path3375"
       inkscape:connector-curvature="0" />
    <path
       style="fill:#0c2340;fill-opacity:1;fill-rule:evenodd;stroke:none"
       d="M 242.71875,23 221.5625,54.78125 h 5 l 3.15625,-4.71875 H 238 l -0.96875,4.71875 H 242 L 248.59375,23 h -0.875 -4.09375 z m -0.9375,8.9375 -2.75,13.15625 H 233 Z"
       id="path3377"
       inkscape:connector-curvature="0" />
    <path
       style="fill:#0c2340;fill-opacity:1;fill-rule:evenodd;stroke:none"
       d="M 260.9375,23 247.15625,54.78125 H 252.125 L 257.875,41.5 h 8.78125 l -5.75,13.28125 h 5 L 279.6875,23 h -5 l -5.875,13.53125 h -8.78125 L 265.90625,23 Z"
       id="path3379"
       inkscape:connector-curvature="0" />
  </g>
</svg>
